PathFileType	4	(X/Y/Z)	C:\Users\Basilio\Documents\Thesis Gigler\squatting_fais\c3dfiles\044\SLS_back_pre3\markers_experimental.trc
DataRate	CameraRate	NumFrames	NumMarkers	Units	OrigDataRate	OrigDataStartFrame	OrigNumFrames
200.000000	200.000000	4	61	mm	200.000000	1229	1405
Frame#	Time	FHD			LBHD			RBHD			C7			T10			LSHO			LUUPA			LMUPA			LDUPA			LLEP			LMEP			LUL			LRFIN			RSHO			RUPA1			RMUPA			RDUPA			RLEP			RMEP			RUL			LASI			RASI			USACR			LSACR			RSACR			LTHI1			LTHI2			LTHI3			LTHI4			LLFC			LMFC			LTIB1			LTIB2			LTIB3			LTIB4			LLMAL			LMMAL			LHEE			LMT1			LMT2			LMT5			RTHI			RTHI2			RTHI3			RTHI4			RLFC			RMFC			RTIB1			RTIB2			RTIB3			RTIB4			RLMAL			RHEE			RMT1			RMT2			RMT5			RMMAL			RUFIN			LRAD			*59			*60			
		X1	Y1	Z1	X2	Y2	Z2	X3	Y3	Z3	X4	Y4	Z4	X5	Y5	Z5	X6	Y6	Z6	X7	Y7	Z7	X8	Y8	Z8	X9	Y9	Z9	X10	Y10	Z10	X11	Y11	Z11	X12	Y12	Z12	X13	Y13	Z13	X14	Y14	Z14	X15	Y15	Z15	X16	Y16	Z16	X17	Y17	Z17	X18	Y18	Z18	X19	Y19	Z19	X20	Y20	Z20	X21	Y21	Z21	X22	Y22	Z22	X23	Y23	Z23	X24	Y24	Z24	X25	Y25	Z25	X26	Y26	Z26	X27	Y27	Z27	X28	Y28	Z28	X29	Y29	Z29	X30	Y30	Z30	X31	Y31	Z31	X32	Y32	Z32	X33	Y33	Z33	X34	Y34	Z34	X35	Y35	Z35	X36	Y36	Z36	X37	Y37	Z37	X38	Y38	Z38	X39	Y39	Z39	X40	Y40	Z40	X41	Y41	Z41	X42	Y42	Z42	X43	Y43	Z43	X44	Y44	Z44	X45	Y45	Z45	X46	Y46	Z46	X47	Y47	Z47	X48	Y48	Z48	X49	Y49	Z49	X50	Y50	Z50	X51	Y51	Z51	X52	Y52	Z52	X53	Y53	Z53	X54	Y54	Z54	X55	Y55	Z55	X56	Y56	Z56	X57	Y57	Z57	X58	Y58	Z58	X59	Y59	Z59	X60	Y60	Z60	X61	Y61	Z61	

1230	6.145	-55.30536270141603	1678.587890625	-834.4230957031252	-169.2429809570313	1743.697143554688	-922.474792480469	-227.3361968994141	1759.318481445313	-768.7496337890627	-348.6557312011719	1587.462036132813	-860.3685302734377	-401.468963623047	1281.33935546875	-869.820983886719	-262.2826232910157	1596.877807617188	-1002.98876953125	-118.6511688232422	1579.327880859375	-1128.348022460938	-82.03021240234376	1590.248413085938	-1093.867065429688	-50.40659332275392	1578.884155273438	-1144.362548828125	10.16723537445069	1582.475830078125	-1142.615356445313	7.655869007110597	1500.3203125	-1135.697143554688	240.6216278076172	1596.45263671875	-975.6307373046877	251.030014038086	1606.661865234375	-869.2910766601565	-273.4418029785157	1572.092163085938	-704.9124145507814	-130.1997680664063	1551.843383789063	-595.8811035156251	-98.86948394775393	1567.0986328125	-632.8673706054689	-60.99388504028322	1553.051635742188	-587.6386718750001	0.7813389897346499	1558.290283203125	-593.9887084960939	2.233155250549317	1477.089111328125	-604.6824340820314	255.4496459960938	1585.212768554688	-715.9018554687501	-259.0847167968751	1064.810424804688	-978.5281372070315	-254.7066802978516	1052.835205078125	-763.1582641601564	-418.0916137695314	1130.626220703125	-864.0357055664065	-428.3960266113282	1098.297241210938	-890.2121582031252	-424.231170654297	1101.604370117188	-833.386413574219	-340.7880554199219	832.0930786132815	-1058.819091796875	-300.3991394042969	757.7584228515626	-1065.404418945313	-251.7193756103516	764.1270141601564	-1059.04541015625	-319.5899963378907	702.7019653320314	-1052.61376953125	-285.6374206542969	548.3479614257814	-1050.281860351563	-280.5526123046876	534.3809204101564	-928.1320800781252	-263.2550659179688	370.0126647949219	-986.8034667968752	-288.5401611328126	327.2012634277344	-1060.56005859375	-258.9470520019532	323.6835632324219	-1023.584106445313	-277.5181579589844	245.1497650146485	-998.845397949219	-327.6587219238282	128.6803436279297	-1054.121704101563	-309.2104492187501	133.8450775146485	-969.129089355469	-392.2467651367189	100.0411376953125	-1007.32275390625	-182.8113250732422	60.58531570434572	-982.676452636719	-181.0201416015625	62.52436828613283	-1029.282104492188	-217.4607086181641	49.81515502929689	-1076.463623046875	-351.1450805664063	788.7305297851565	-682.3947753906251	-308.2550659179688	736.8193969726564	-674.5830078125001	-275.0290222167969	741.2744750976564	-676.9800415039064	-325.4944152832032	656.0262451171876	-691.5123901367189	-317.4523620605469	543.7611083984376	-694.4207153320314	-323.5062255859376	533.0630493164064	-817.755554199219	-271.8303222656251	415.1826782226564	-718.2699584960939	-340.6385192871094	344.8174438476563	-668.7146606445314	-299.3530273437501	337.8306579589844	-685.8558959960939	-289.7015075683594	286.5464172363282	-710.6736450195314	-355.5713806152344	136.0474700927735	-689.7965087890626	-415.129608154297	111.7142028808594	-733.9091796875001	-209.8790893554688	64.1315155029297	-756.5384521484376	-204.328598022461	59.77034378051759	-719.5220947265626	-242.6977844238282	48.13830947875978	-666.1029663085939	-336.2978820800782	140.1303863525391	-773.2349853515627	244.0463104248047	1573.861083984375	-828.776794433594	221.0516510009766	1546.138671875	-928.5283813476565	nan	nan	nan	nan	nan	nan	
1231	6.15	-55.47370529174806	1678.675537109375	-834.3276977539065	-169.5842590332032	1743.66015625	-922.2625122070315	-227.6046295166016	1759.269653320313	-768.5162353515627	-348.8638000488282	1587.504028320313	-860.2934570312502	-401.6941223144532	1281.312255859375	-869.7993164062502	-262.3974304199219	1596.8369140625	-1002.90380859375	-118.5342483520508	1579.476196289063	-1128.071899414063	-82.18358612060548	1590.263671875	-1093.612182617188	-50.4533157348633	1578.961669921875	-1144.041137695313	10.21502017974854	1582.6494140625	-1142.311645507813	8.162139892578127	1500.132446289063	-1135.3291015625	240.4880371093751	1596.3017578125	-975.0705566406252	250.7444915771485	1606.441284179688	-868.724304199219	-273.7514953613282	1572.062744140625	-704.7814331054689	-130.565414428711	1551.715454101563	-595.7865600585939	-99.28450775146487	1566.9453125	-632.6209716796876	-61.39411544799806	1552.986694335938	-587.3862915039064	0.4843264222145082	1558.080200195313	-593.6071777343751	1.674824118614197	1476.701416015625	-603.8396606445314	255.1151733398438	1585.3212890625	-715.6983642578126	-258.9168090820313	1064.998901367188	-978.545837402344	-255.0185546875001	1052.74853515625	-763.0039672851564	-418.233123779297	1130.627563476563	-864.1399536132815	-428.4815063476564	1098.35107421875	-890.3328857421877	-424.309295654297	1101.661743164063	-833.5656738281252	-340.4540100097657	832.1951904296877	-1058.988403320313	-300.1325988769532	757.9368286132814	-1065.464477539063	-251.4124603271485	764.2023925781251	-1059.129028320313	-319.1836242675782	702.6708374023439	-1052.923217773438	-285.3735046386719	548.4924926757814	-1050.48193359375	-280.3538208007813	534.3188476562501	-928.2468872070315	-263.2099914550782	370.0560913085938	-986.9669189453127	-287.8889160156251	327.7395324707032	-1060.605590820313	-258.6927490234376	323.8061828613282	-1023.751770019531	-277.5213928222657	245.0767059326172	-998.8996582031252	-327.8653564453126	128.74755859375	-1054.159545898438	-309.4317626953126	133.9865417480469	-969.200378417969	-392.5208740234376	100.0669021606446	-1007.432800292969	-182.8426361083985	60.57459259033205	-982.674987792969	-181.0966339111328	62.78419876098634	-1029.332275390625	-217.6245727539063	49.90875625610353	-1076.559692382813	-351.1807250976563	788.6896972656252	-682.5812988281251	-308.2661132812501	736.7493896484376	-674.6874389648439	-274.9679260253907	741.2088012695314	-677.0906982421876	-325.3511352539063	655.9409790039064	-691.6566162109376	-317.1732177734376	543.6873168945314	-694.5409545898439	-323.1831054687501	532.9813842773439	-817.8665161132815	-271.6413574218751	415.0191650390626	-718.3197631835939	-340.3363952636719	344.6691894531251	-668.8582763671876	-299.2965393066407	337.8270568847657	-685.9420166015626	-289.4913330078126	286.3567504882813	-710.8615722656251	-355.5679321289063	135.9785919189453	-689.9296264648439	-414.7137451171876	111.143669128418	-734.3434448242189	-209.8887023925782	64.11810302734376	-756.5682373046876	-204.3191986083985	59.73192214965822	-719.5276489257814	-242.6966552734376	48.15230178833009	-666.1113281250001	-336.2530822753907	140.0504150390625	-773.3609619140627	243.7905731201172	1573.4326171875	-828.4019165039065	220.7284393310547	1546.081176757813	-928.0986328125002	nan	nan	nan	nan	nan	nan	
1232	6.155	-55.89686203002931	1678.698974609375	-834.0879516601565	-169.9346466064453	1743.7958984375	-922.078308105469	-227.9393005371094	1759.267578125	-768.3559570312502	-349.1093444824219	1587.60400390625	-860.4163818359377	-401.8474121093751	1281.230102539063	-869.8435668945315	-262.5068359375001	1597.000366210938	-1002.837219238281	-118.7030334472657	1579.6298828125	-1127.914306640625	-82.18946075439455	1590.329467773438	-1093.401245117188	-50.42597579956056	1579.202270507813	-1143.813720703125	10.08414936065674	1582.79736328125	-1142.0693359375	7.782214164733888	1500.838256835938	-1135.314453125	240.2659759521485	1596.143798828125	-974.5408325195315	250.5386810302735	1606.195434570313	-868.1374511718752	-274.0890197753907	1571.988525390625	-704.7461547851564	-131.027816772461	1551.671142578125	-595.6749877929689	-99.79132843017581	1566.904052734375	-632.4116821289064	-61.70701599121095	1552.751342773438	-587.1834716796876	-0.1588592380285263	1557.960327148438	-593.1873779296876	1.054186820983887	1476.812133789063	-603.5259399414064	254.5345764160157	1585.106201171875	-715.1667480468751	-259.4443969726563	1065.377807617188	-978.349060058594	-255.175277709961	1052.750122070313	-763.0071411132814	-418.319305419922	1130.60888671875	-864.2741699218752	-428.4850463867189	1098.303344726563	-890.5402832031252	-424.430145263672	1101.556884765625	-833.7224121093752	-340.0129699707032	832.2396240234377	-1059.225952148438	-299.7290954589844	758.0398559570314	-1065.566528320313	-251.0492858886719	764.3684082031251	-1059.253051757813	-318.8122863769532	702.6977539062501	-1053.111572265625	-285.0556335449219	548.5089111328126	-1050.663208007813	-280.2272949218751	534.3051757812501	-928.371520996094	-263.0633544921876	370.0763244628907	-987.149841308594	-287.8971252441407	327.7853698730469	-1060.733154296875	-258.6364746093751	323.8345642089844	-1023.938537597656	-277.5207519531251	245.1129302978516	-998.944274902344	-327.9734497070313	128.7903137207032	-1054.207275390625	-309.7096252441407	134.1786651611328	-969.388610839844	-392.7700195312501	100.0439071655274	-1007.505859375	-183.0563659667969	60.78122329711915	-982.698913574219	-181.7828369140625	63.44234848022462	-1029.822021484375	-217.7729492187501	49.97078323364259	-1076.571533203125	-351.0956115722657	788.4937133789065	-682.7938232421876	-308.1461791992188	736.5864868164064	-674.7934570312501	-274.9115905761719	741.1890869140626	-677.0983886718751	-325.2193603515626	655.9165649414064	-691.8092041015626	-316.9949645996094	543.6420898437501	-694.6571655273439	-322.8630676269532	532.9774780273439	-817.9570312500002	-271.4652709960938	414.9191894531251	-718.4509887695314	-340.2007751464844	344.7112731933594	-669.0648803710939	-299.0044860839844	337.7200012207032	-685.9801635742189	-289.4032287597657	286.3050537109376	-710.9570922851564	-355.4861450195313	136.0806274414063	-690.0737304687501	-414.6902770996095	111.1267700195313	-734.3580932617189	-209.9089660644532	64.1232376098633	-756.6117553710939	-204.3208923339844	59.78274154663087	-719.5516967773439	-242.7558135986329	48.18343734741212	-666.1715087890626	-336.2509155273438	140.0510559082032	-773.4189453125002	243.4226684570313	1572.244750976563	-828.0336914062502	220.5732421875001	1546.030517578125	-927.7109375000002	nan	nan	nan	nan	nan	nan	
1233	6.16	-56.30332183837892	1678.7822265625	-833.803649902344	-170.140380859375	1743.791625976563	-922.0084228515627	-228.2539978027344	1759.25634765625	-768.208923339844	-349.2849121093751	1587.629272460938	-860.451354980469	-402.0332641601564	1281.18505859375	-869.963562011719	-262.5497131347657	1596.966430664063	-1002.766967773438	-118.6120223999024	1579.739624023438	-1127.750854492188	-82.19384765625001	1590.521850585938	-1093.160034179688	-50.34101867675783	1579.384521484375	-1143.624145507813	10.15238571166992	1582.924194335938	-1141.904907226563	7.872349739074709	1500.978637695313	-1135.244262695313	240.1366729736329	1596.088256835938	-974.111267089844	250.4177398681641	1606.127807617188	-867.8704833984377	-274.6828308105469	1572.104736328125	-704.7166137695314	-131.6842346191407	1551.569702148438	-595.3759155273439	-100.2753295898438	1566.858276367188	-632.2620239257814	-62.30317687988283	1552.658447265625	-586.9265747070314	-0.5120370388031007	1557.853881835938	-592.7922363281251	0.6095502376556398	1476.586669921875	-603.5104370117189	254.3933105468751	1584.69482421875	-714.5523681640626	-258.8885192871094	1065.146606445313	-978.620056152344	-255.2515716552735	1052.699584960938	-763.0551757812501	-418.4069213867189	1130.5947265625	-864.4737548828127	-428.5620422363282	1098.311645507813	-890.714294433594	-424.6073608398439	1101.329956054688	-833.8863525390627	-339.6651611328126	832.1770019531252	-1059.444458007813	-299.3827209472657	758.0748901367189	-1065.70166015625	-250.4441986083985	764.4144287109376	-1059.345825195313	-318.4752807617188	702.7111816406251	-1053.3203125	-284.1383666992188	548.2703857421876	-1050.890747070313	-280.0657958984376	534.2388305664064	-928.4531860351565	-262.9370422363282	370.0068969726563	-987.211853027344	-287.8683166503907	327.8265075683594	-1060.851318359375	-258.5539245605469	323.8124084472657	-1024.081787109375	-277.7366943359376	245.2708892822266	-999.0245361328127	-328.1507263183594	128.8393707275391	-1054.197143554688	-309.8055114746094	134.2650756835938	-969.4586181640627	-392.9861450195314	99.76490783691409	-1007.517944335938	-183.2357025146485	60.95446014404298	-982.6671142578127	-181.987548828125	63.51356506347658	-1029.791748046875	-217.9284362792969	49.65000152587892	-1076.638671875	-350.9701843261719	788.2737426757815	-683.0311279296876	-308.0588989257813	736.6220092773439	-674.9767456054689	-274.8226928710938	741.2022094726564	-677.2100830078126	-325.0425415039063	655.8576049804689	-692.0242919921876	-316.6550292968751	543.1617431640626	-694.5491943359376	-322.5274963378907	532.9158935546876	-818.0855102539065	-271.3232421875001	414.8273925781251	-718.5744628906251	-339.9189758300782	344.6656799316407	-669.3062744140626	-298.6255798339844	337.6777038574219	-686.2294921875001	-289.2505798339844	286.1607971191407	-711.0538330078126	-355.5237121582032	136.081787109375	-690.1819458007814	-414.7160644531251	111.0883026123047	-734.3712768554689	-209.8615112304688	64.0492630004883	-756.6218261718751	-204.3078308105469	59.76682281494142	-719.5924682617189	-242.7450256347657	48.21332168579103	-666.1549072265626	-336.3340454101563	139.9781646728516	-773.6480712890627	243.1536865234376	1572.03125	-827.6541748046877	220.432601928711	1545.9521484375	-927.3184814453127	nan	nan	nan	nan	nan	nan	
